<?xml version="1.0" standalone="no"?>
<!DOCTYPE svg PUBLIC "-//W3C//DTD SVG 20010904//EN"
 "http://www.w3.org/TR/2001/REC-SVG-20010904/DTD/svg10.dtd">
<svg version="1.0" xmlns="http://www.w3.org/2000/svg"
 width="981.000000pt" height="980.000000pt" viewBox="0 0 981.000000 980.000000"
 preserveAspectRatio="xMidYMid meet">

<g transform="translate(0.000000,980.000000) scale(0.100000,-0.100000)"
fill="#000000" stroke="none">
<path d="M3516 9789 c-273 -35 -527 -167 -729 -378 -159 -166 -271 -387 -317
-623 l-11 -58 -695 0 -694 0 0 -1919 0 -1920 -57 -11 c-184 -36 -317 -90 -461
-187 -464 -313 -661 -879 -487 -1401 89 -265 258 -482 499 -641 146 -96 268
-145 449 -181 l57 -11 0 -695 0 -694 1920 0 1920 0 4 -22 c22 -118 61 -251 95
-323 169 -362 495 -618 893 -702 114 -24 333 -23 448 1 252 54 456 163 630
336 185 184 293 377 341 608 10 52 19 96 19 98 0 2 313 4 695 4 l695 0 0 694
0 695 58 11 c302 60 549 209 737 444 191 237 288 528 272 816 -18 323 -149
608 -382 828 -182 173 -376 272 -627 322 l-58 11 0 1920 0 1919 -1919 0 -1920
0 -10 58 c-31 158 -115 357 -210 495 -107 154 -307 321 -484 402 -207 95 -448
132 -671 104z m-1052 -1391 c44 -218 111 -382 213 -527 69 -98 219 -241 331
-315 145 -97 256 -143 435 -181 42 -9 75 -20 72 -25 -3 -5 -40 -16 -83 -26
-220 -48 -420 -150 -580 -299 -205 -190 -327 -409 -382 -687 l-11 -58 -540 0
-539 0 0 1070 0 1070 540 0 540 0 4 -22z m3506 -517 l0 -540 -57 -11 c-260
-51 -463 -159 -649 -345 -164 -164 -274 -356 -326 -569 -17 -69 -34 -126 -38
-126 -4 0 -21 57 -38 126 -39 159 -105 297 -207 433 -179 237 -414 396 -686
462 -68 17 -128 34 -133 39 -4 4 18 13 50 20 275 55 467 161 665 367 185 193
278 371 329 626 l11 57 540 0 539 0 0 -539z m2450 -531 l0 -1070 -540 0 c-297
0 -540 2 -540 4 0 20 -43 203 -58 246 -72 206 -245 438 -435 581 -130 98 -331
185 -509 219 l-58 11 0 540 0 539 1070 0 1070 0 0 -1070z m-4490 -345 c323
-104 552 -347 636 -675 25 -98 25 -304 1 -404 -69 -279 -251 -503 -508 -626
-137 -65 -221 -83 -384 -83 -113 0 -156 4 -220 21 -346 95 -610 375 -681 723
-22 107 -15 293 15 394 83 291 291 519 568 627 121 47 190 58 348 54 119 -3
153 -7 225 -31z m-1466 -1057 c38 -202 87 -330 179 -470 198 -300 476 -490
821 -558 32 -7 54 -16 50 -20 -5 -5 -65 -22 -133 -39 -218 -53 -407 -163 -577
-336 -159 -163 -265 -351 -317 -562 -16 -68 -33 -123 -37 -123 -4 0 -21 57
-38 126 -67 276 -235 521 -481 703 -143 105 -301 173 -493 211 l-58 11 0 540
0 539 540 0 540 0 4 -22z m2470 -90 c83 -331 249 -567 527 -753 141 -95 254
-142 432 -181 43 -9 75 -20 70 -24 -4 -5 -62 -22 -129 -38 -215 -53 -403 -161
-569 -328 -169 -170 -275 -354 -328 -571 -16 -68 -33 -123 -38 -123 -4 0 -15
35 -24 78 -74 354 -326 686 -640 844 -77 39 -232 94 -317 112 -43 10 -78 21
-78 25 0 5 56 22 125 39 223 54 413 168 591 354 161 170 255 334 305 537 31
126 39 151 45 136 2 -5 15 -54 28 -107z m3486 -427 l0 -540 -57 -11 c-235 -46
-385 -119 -575 -277 -120 -102 -248 -264 -321 -408 -31 -63 -71 -186 -93 -288
-9 -43 -20 -75 -24 -70 -5 4 -22 64 -39 132 -105 429 -463 787 -892 892 -68
17 -126 33 -129 35 -8 9 23 22 68 29 68 10 237 72 334 122 158 81 297 201 414
355 116 155 184 310 224 511 l11 57 540 0 539 0 0 -539z m-7023 -856 c343 -73
618 -329 713 -665 31 -108 38 -290 15 -401 -70 -347 -327 -623 -670 -721 -115
-33 -345 -33 -458 0 -323 93 -566 334 -658 654 -27 95 -36 271 -19 375 59 367
355 676 725 758 82 18 268 18 352 0z m4900 0 c342 -72 599 -306 708 -645 23
-71 28 -107 32 -225 4 -127 2 -150 -21 -240 -85 -328 -335 -584 -661 -677
-116 -33 -344 -33 -459 0 -321 93 -565 336 -657 654 -30 105 -37 288 -14 399
35 176 112 324 234 452 144 151 298 240 486 282 82 18 268 18 352 0z m2450 0
c355 -75 622 -330 721 -687 13 -48 17 -100 16 -223 0 -148 -2 -167 -28 -245
-95 -285 -292 -497 -562 -602 -262 -101 -566 -69 -801 84 -499 325 -580 979
-174 1402 135 141 293 231 476 271 82 18 268 18 352 0z m-6218 -1320 c66 -176
151 -306 286 -440 182 -182 393 -295 648 -345 l57 -11 0 -540 0 -539 -1070 0
-1070 0 0 539 0 540 58 11 c270 53 470 165 668 372 163 171 260 345 309 552
14 60 29 114 32 120 4 5 19 -37 33 -94 14 -58 36 -132 49 -165z m2401 162 c34
-159 75 -254 165 -392 100 -153 227 -280 383 -382 118 -78 219 -121 367 -158
74 -19 123 -35 115 -39 -9 -4 -68 -19 -132 -35 -292 -72 -550 -262 -738 -540
-83 -124 -140 -274 -176 -468 l-4 -23 -540 0 -540 0 0 539 0 540 58 11 c91 18
259 78 354 127 299 154 538 455 618 779 32 129 38 149 45 143 2 -3 14 -49 25
-102z m2465 -57 c74 -321 359 -653 692 -807 64 -29 199 -68 311 -89 l22 -4 0
-540 0 -540 -540 0 c-297 0 -540 2 -540 4 0 21 -43 204 -59 249 -31 89 -107
227 -176 319 -176 235 -421 395 -712 466 -57 13 -103 28 -103 32 0 4 57 21
127 38 224 55 409 166 590 355 161 169 254 332 304 536 16 64 31 122 35 131 7
16 19 -19 49 -150z"/>
</g>
</svg>
